{
    "asset" : {
        "generator" : "Khronos glTF Blender I/O v1.1.46",
        "version" : "2.0"
    },
    "scene" : 0,
    "scenes" : [
        {
            "name" : "Scene",
            "nodes" : [
                0
            ]
        }
    ],
    "nodes" : [
        {
            "mesh" : 0,
            "name" : "Cube",
            "scale" : [
                0.10000002384185791,
                0.10000002384185791,
                0.10000002384185791
            ]
        }
    ],
    "materials" : [
        {
            "doubleSided" : true,
            "emissiveFactor" : [
                0,
                0,
                0
            ],
            "name" : "Material.001",
            "pbrMetallicRoughness" : {
                "baseColorFactor" : [
                    0.012634162791073322,
                    0.8000000715255737,
                    0,
                    1
                ],
                "metallicFactor" : 0,
                "roughnessFactor" : 0.5
            }
        },
        {
            "doubleSided" : true,
            "emissiveFactor" : [
                0,
                0,
                0
            ],
            "name" : "Material.002",
            "pbrMetallicRoughness" : {
                "baseColorFactor" : [
                    0.8000000715255737,
                    0.0933980718255043,
                    0.10711703449487686,
                    1
                ],
                "metallicFactor" : 0,
                "roughnessFactor" : 0.5
            }
        },
        {
            "doubleSided" : true,
            "emissiveFactor" : [
                0,
                0,
                0
            ],
            "name" : "Material.003",
            "pbrMetallicRoughness" : {
                "baseColorFactor" : [
                    0.7340360283851624,
                    0.8000000715255737,
                    0,
                    1
                ],
                "metallicFactor" : 0,
                "roughnessFactor" : 0.5
            }
        },
        {
            "doubleSided" : true,
            "emissiveFactor" : [
                0,
                0,
                0
            ],
            "name" : "Material.004",
            "pbrMetallicRoughness" : {
                "baseColorFactor" : [
                    0.8000000715255737,
                    0.009157282300293446,
                    0.0048601808957755566,
                    1
                ],
                "metallicFactor" : 0,
                "roughnessFactor" : 0.5
            }
        }
    ],
    "meshes" : [
        {
            "name" : "Cube.001",
            "primitives" : [
                {
                    "attributes" : {
                        "POSITION" : 0,
                        "NORMAL" : 1,
                        "TEXCOORD_0" : 2
                    },
                    "indices" : 3,
                    "material" : 0
                },
                {
                    "attributes" : {
                        "POSITION" : 4,
                        "NORMAL" : 5,
                        "TEXCOORD_0" : 6
                    },
                    "indices" : 7,
                    "material" : 1
                },
                {
                    "attributes" : {
                        "POSITION" : 8,
                        "NORMAL" : 9,
                        "TEXCOORD_0" : 10
                    },
                    "indices" : 11,
                    "material" : 2
                },
                {
                    "attributes" : {
                        "POSITION" : 12,
                        "NORMAL" : 13,
                        "TEXCOORD_0" : 14
                    },
                    "indices" : 15,
                    "material" : 3
                }
            ]
        }
    ],
    "accessors" : [
        {
            "bufferView" : 0,
            "componentType" : 5126,
            "count" : 42,
            "max" : [
                2.2586727142333984,
                0.15704166889190674,
                0.32017916440963745
            ],
            "min" : [
                -1.5150022506713867,
                -0.15704165399074554,
                -0.32017916440963745
            ],
            "type" : "VEC3"
        },
        {
            "bufferView" : 1,
            "componentType" : 5126,
            "count" : 42,
            "type" : "VEC3"
        },
        {
            "bufferView" : 2,
            "componentType" : 5126,
            "count" : 42,
            "type" : "VEC2"
        },
        {
            "bufferView" : 3,
            "componentType" : 5123,
            "count" : 72,
            "type" : "SCALAR"
        },
        {
            "bufferView" : 4,
            "componentType" : 5126,
            "count" : 28,
            "max" : [
                -2.410156011581421,
                0.2280508130788803,
                0.8359924554824829
            ],
            "min" : [
                -13.945713996887207,
                -0.2280508130788803,
                -0.8359924554824829
            ],
            "type" : "VEC3"
        },
        {
            "bufferView" : 5,
            "componentType" : 5126,
            "count" : 28,
            "type" : "VEC3"
        },
        {
            "bufferView" : 6,
            "componentType" : 5126,
            "count" : 28,
            "type" : "VEC2"
        },
        {
            "bufferView" : 7,
            "componentType" : 5123,
            "count" : 36,
            "type" : "SCALAR"
        },
        {
            "bufferView" : 8,
            "componentType" : 5126,
            "count" : 75,
            "max" : [
                -1.5150022506713867,
                0.2280508130788803,
                2.7871687412261963
            ],
            "min" : [
                -2.410156011581421,
                -0.2280508130788803,
                -2.7871687412261963
            ],
            "type" : "VEC3"
        },
        {
            "bufferView" : 9,
            "componentType" : 5126,
            "count" : 75,
            "type" : "VEC3"
        },
        {
            "bufferView" : 10,
            "componentType" : 5126,
            "count" : 75,
            "type" : "VEC2"
        },
        {
            "bufferView" : 11,
            "componentType" : 5123,
            "count" : 120,
            "type" : "SCALAR"
        },
        {
            "bufferView" : 12,
            "componentType" : 5126,
            "count" : 146,
            "max" : [
                2.704200267791748,
                0.20058177411556244,
                0.40894952416419983
            ],
            "min" : [
                2.2586727142333984,
                -0.20058177411556244,
                -0.40894946455955505
            ],
            "type" : "VEC3"
        },
        {
            "bufferView" : 13,
            "componentType" : 5126,
            "count" : 146,
            "type" : "VEC3"
        },
        {
            "bufferView" : 14,
            "componentType" : 5126,
            "count" : 146,
            "type" : "VEC2"
        },
        {
            "bufferView" : 15,
            "componentType" : 5123,
            "count" : 252,
            "type" : "SCALAR"
        }
    ],
    "bufferViews" : [
        {
            "buffer" : 0,
            "byteLength" : 504,
            "byteOffset" : 0
        },
        {
            "buffer" : 0,
            "byteLength" : 504,
            "byteOffset" : 504
        },
        {
            "buffer" : 0,
            "byteLength" : 336,
            "byteOffset" : 1008
        },
        {
            "buffer" : 0,
            "byteLength" : 144,
            "byteOffset" : 1344
        },
        {
            "buffer" : 0,
            "byteLength" : 336,
            "byteOffset" : 1488
        },
        {
            "buffer" : 0,
            "byteLength" : 336,
            "byteOffset" : 1824
        },
        {
            "buffer" : 0,
            "byteLength" : 224,
            "byteOffset" : 2160
        },
        {
            "buffer" : 0,
            "byteLength" : 72,
            "byteOffset" : 2384
        },
        {
            "buffer" : 0,
            "byteLength" : 900,
            "byteOffset" : 2456
        },
        {
            "buffer" : 0,
            "byteLength" : 900,
            "byteOffset" : 3356
        },
        {
            "buffer" : 0,
            "byteLength" : 600,
            "byteOffset" : 4256
        },
        {
            "buffer" : 0,
            "byteLength" : 240,
            "byteOffset" : 4856
        },
        {
            "buffer" : 0,
            "byteLength" : 1752,
            "byteOffset" : 5096
        },
        {
            "buffer" : 0,
            "byteLength" : 1752,
            "byteOffset" : 6848
        },
        {
            "buffer" : 0,
            "byteLength" : 1168,
            "byteOffset" : 8600
        },
        {
            "buffer" : 0,
            "byteLength" : 504,
            "byteOffset" : 9768
        }
    ],
    "buffers" : [
        {
            "byteLength" : 10272,
            "uri" : "data:application/octet-stream;base64,"
        }
    ]
}
